# xmcd
#
# Track frame offsets: 
#        150
#        14330
#        28605
#        43312
#        58139
#        71224
#        83021
#        94928
#        107771
#        119593
#        133336
#        146381
#        162030
#        175023
#        189019
#        202174
#        216417
#        228635
#        241280
#        253246
#
# Disc length: 3549 seconds
#
# Revision: 2
# Processed by: cddbd v1.5.2PL0 Copyright (c) Steve Scherf et al.
# Submitted via: ExactAudioCopy v0.99pb5
#
DISCID=2c0ddb14
DTITLE=T-Bone Walker - The Beginning (1929 - 1946)
DYEAR=1997
DGENRE=Blues
TTITLE0=Trinity river blues
TTITLE1=Wichita falls blues
TTITLE2=T-Bone blues
TTITLE3=I got a break baby
TTITLE4=Mean old world
TTITLE5=Low down dirty shame (Married woman blues)
TTITLE6=Sail on boogie
TTITLE7=I'm still in love with you
TTITLE8=You don't love me blues
TTITLE9=T-Bone boogie
TTITLE10=Mean old world blues
TTITLE11=Evening
TTITLE12=My baby left me (blues)
TTITLE13=Come back to me baby (blues)
TTITLE14=She's going to ruin me (blues)
TTITLE15=I can't stand being away from you
TTITLE16=No worry blues
TTITLE17=Don't leave me baby
TTITLE18=Bobby sox blues
TTITLE19=I'm gonna find my baby
EXTD=
EXTT0=
EXTT1=
EXTT2=
EXTT3=
EXTT4=
EXTT5=
EXTT6=
EXTT7=
EXTT8=
EXTT9=
EXTT10=
EXTT11=
EXTT12=
EXTT13=
EXTT14=
EXTT15=
EXTT16=
EXTT17=
EXTT18=
EXTT19=
PLAYORDER=
